<svg xmlns="http://www.w3.org/2000/svg" version="1.1" xmlns:xlink="http://www.w3.org/1999/xlink" xmlns:svgjs="http://svgjs.dev/svgjs" viewBox="0 0 800 800"><g transform="matrix(1,0,0,1,0,0)"><circle r="350" cx="513" cy="131" stroke-width="4" stroke="#000000" fill="none" opacity="0.02" transform="matrix(0.3536843431472224,0.9975640502598242,-1.027173916631792,-0.06975647374412533,613.5819630310461,28.876969393720458)"></circle><circle r="333.3333333333333" cx="503.5833333333333" cy="153.41666666666666" stroke-width="5" stroke="#1f2c4a" fill="none" opacity="0.10166666666666667" transform="matrix(0.45152557209913535,0.9977627428420542,-0.9719881222654422,0.06685438651502713,574.6950842394443,-25.84685174283254)"></circle><circle r="316.6666666666667" cx="494.1666666666667" cy="175.83333333333334" stroke-width="6" stroke="#2c3e68" fill="none" opacity="0.18333333333333332" transform="matrix(0.54262133789027,0.9793406217655515,-0.9090528980114063,0.2022175723320379,530.2740932260724,-72.62327763903573)"></circle><circle r="300" cx="484.75" cy="198.25" stroke-width="7" stroke="#364c80" fill="none" opacity="0.265" transform="matrix(0.6265048222744022,0.9426414910921783,-0.838991706237587,0.3338068592337711,481.0999363795612,-110.57934013037976)"></circle><circle r="283.3333333333333" cx="475.3333333333333" cy="220.66666666666669" stroke-width="8" stroke="#3e5793" fill="none" opacity="0.3466666666666667" transform="matrix(0.7027471700441137,0.8883502507930041,-0.7624493533923806,0.4591664533870116,428.1093579336142,-139.00668167200627)"></circle><circle r="266.66666666666663" cx="465.9166666666667" cy="243.08333333333334" stroke-width="9" stroke="#4561a5" fill="none" opacity="0.42833333333333334" transform="matrix(0.7709593659544904,0.8174801147569665,-0.6800907849322746,0.5759568230144834,372.35732622671463,-157.3747751085799)"></circle><circle r="250" cx="456.5" cy="265.5" stroke-width="10" stroke="#4c6bb4" fill="none" opacity="0.51" transform="matrix(0.8307939523489528,0.7313537016191705,-0.5925995670612632,0.6819983600624985,314.97772601877796,-165.34082467266762)"></circle><circle r="233.33333333333331" cx="447.08333333333337" cy="287.9166666666667" stroke-width="11" stroke="#5273c3" fill="none" opacity="0.5916666666666667" transform="matrix(0.8819465743407404,0.6315783513024976,-0.5006761019965454,0.7753120572814658,257.14305924586785,-162.75616343358536)"></circle><circle r="216.66666666666666" cx="437.6666666666667" cy="310.33333333333337" stroke-width="12" stroke="#577bd0" fill="none" opacity="0.6733333333333333" transform="matrix(0.924157341205542,0.5200161279292155,-0.40503561844148206,0.8541564415805256,200.02452890167763,-149.66902780389637)"></circle><circle r="200" cx="428.25" cy="332.75" stroke-width="13" stroke="#5d83dd" fill="none" opacity="0.755" transform="matrix(0.9572119943227215,0.3987490689252462,-0.3064059750995357,0.917060074385124,144.7533736322676,-126.32365732414814)"></circle><circle r="183.33333333333331" cx="418.83333333333337" cy="355.1666666666667" stroke-width="14" stroke="#628ae9" fill="none" opacity="0.8366666666666667" transform="matrix(0.9809428735979068,0.27004032885800083,-0.20552531214061315,0.9628490124574376,92.3846314206537,-93.15573652617536)"></circle><circle r="166.66666666666666" cx="409.4166666666667" cy="377.58333333333337" stroke-width="15" stroke="#6691f4" fill="none" opacity="0.9183333333333333" transform="matrix(0.9952296758330689,0.13629194316349463,-0.10313958333935686,0.990668716690256,43.86417907913136,-50.784263941500285)"></circle><circle r="150" cx="400" cy="400" stroke-width="16" stroke="#6b97ff" fill="none" opacity="1" transform="matrix(1,0,0,1,0,0)"></circle></g></svg>